<svg id="Layer_1" data-name="Layer 1" xmlns="http://www.w3.org/2000/svg" viewBox="0 0 99.18 45.5"><title>logo</title><path d="M50,45.5a8.09,8.09,0,0,1-6-2.44c-2.29-2.29-2.2-5.34-2.2-8.6s-.09-6.31,2.2-8.6a8.08,8.08,0,0,1,6-2.44c4.12,0,7.44,2.29,8.24,7.08H52.84a2.69,2.69,0,0,0-2.78-2.32,2.59,2.59,0,0,0-2.1.92c-.49.64-.82,1.4-.82,5.37s.34,4.73.82,5.37a2.59,2.59,0,0,0,2.1.91,2.69,2.69,0,0,0,2.78-2.32h5.43C57.48,43.21,54.15,45.5,50,45.5Zm15-.18V23.6H59.72V45.32ZM95.3,43.53v-.25H93.88v.25h.57v1.79h.28V43.53Zm2.16,1.79v-2h-.27l-.62,1.24-.62-1.24h-.28v2h.28V43.84l.49,1h.27l.49-1v1.48ZM93.6,23.6,89,31.91,84.86,23.6H66.18v4.78h5.37V45.32h5.37V28.38h4.78l4.65,8.36v8.58H91.7V36.74L99.18,23.6ZM6.16,5.67c-.49.64-.82,1.4-.82,5.37s.34,4.73.82,5.37a2.59,2.59,0,0,0,2.1.91A2.69,2.69,0,0,0,11,15h5.43c-.79,4.79-4.12,7.08-8.24,7.08a8.09,8.09,0,0,1-6-2.44C-.09,17.35,0,14.31,0,11s-.09-6.31,2.2-8.6A8.08,8.08,0,0,1,8.24,0c4.12,0,7.44,2.29,8.24,7.08H11A2.69,2.69,0,0,0,8.27,4.76,2.59,2.59,0,0,0,6.16,5.67ZM17.54.18h5.34V21.9H17.54Zm25.89,0H58.19V4.94H48.77V8.57h8.05v4.76H48.77v3.81h9.42V21.9H43.43ZM99.18,21.9H93.59l-1-3.24H85.89L84.82,21.9H75v-11l-3.29,5.89H68.26L65,10.76V21.9H59.72V.18H65l5,9.55,5-9.55h5.33V19L87.15.18h4.12Zm-8-7.7L89.35,8.4l-2,5.8ZM36.3.18h5.34V21.9H37L30,11V21.9H24.67V.18h4.67l7,10.91Z" style="fill:#f5821e"/></svg>