<?xml version="1.0" encoding="UTF-8" standalone="no"?>
<svg
   xmlns:dc="http://purl.org/dc/elements/1.1/"
   xmlns:cc="http://creativecommons.org/ns#"
   xmlns:rdf="http://www.w3.org/1999/02/22-rdf-syntax-ns#"
   xmlns:svg="http://www.w3.org/2000/svg"
   xmlns="http://www.w3.org/2000/svg"
   xmlns:sodipodi="http://sodipodi.sourceforge.net/DTD/sodipodi-0.dtd"
   xmlns:inkscape="http://www.inkscape.org/namespaces/inkscape"
   version="1.1"
   id="svg2"
   xml:space="preserve"
   width="287.90668"
   height="288.10132"
   viewBox="0 0 287.90668 288.10132"
   sodipodi:docname="DSKbank_logo_verical_Latin_CM.ai"><metadata
     id="metadata8"><rdf:RDF><cc:Work
         rdf:about=""><dc:format>image/svg+xml</dc:format><dc:type
           rdf:resource="http://purl.org/dc/dcmitype/StillImage" /></cc:Work></rdf:RDF></metadata><defs
     id="defs6"><clipPath
       clipPathUnits="userSpaceOnUse"
       id="clipPath18"><path
         d="M 0,216.076 H 215.93 V 0 H 0 Z"
         id="path16" /></clipPath></defs><sodipodi:namedview
     pagecolor="#ffffff"
     bordercolor="#666666"
     borderopacity="1"
     objecttolerance="10"
     gridtolerance="10"
     guidetolerance="10"
     inkscape:pageopacity="0"
     inkscape:pageshadow="2"
     inkscape:window-width="640"
     inkscape:window-height="480"
     id="namedview4" /><g
     id="g10"
     inkscape:groupmode="layer"
     inkscape:label="DSKbank_logo_verical_Latin_CM"
     transform="matrix(1.3333333,0,0,-1.3333333,0,288.10133)"><g
       id="g12"><g
         id="g14"
         clip-path="url(#clipPath18)"><g
           id="g20"
           transform="translate(98.1582,25.1953)"><path
             d="m 0,0 c 3.229,-0.15 7.986,-0.057 11.694,2.453 4.221,2.91 6.219,7.987 6.219,11.639 0,5.191 -3.138,7.188 -6.789,7.188 -2.91,0 -4.965,-1.256 -6.79,-2.396 C 4.334,18.884 0.354,1.4 0,0 m -6.962,-4.163 c 0.38,1.731 2.84,11.866 5.352,23.266 2.156,9.778 3.653,15.877 4.176,20.433 l 0.457,0.4 L 9.24,41.02 9.526,40.619 7.93,34.287 5.305,23.334 c 2.394,1.312 4.679,2.566 8.329,2.566 5.646,0 10.382,-3.822 10.382,-11.009 0,-2.911 -0.912,-8.387 -4.736,-12.78 C 14.146,-3.766 7.816,-4.163 0.457,-4.449 h -3.139 l -3.992,-0.056 z"
             style="fill:#4dbd38;fill-opacity:1;fill-rule:nonzero;stroke:none"
             id="path22" /></g><g
           id="g24"
           transform="translate(148.54,46.1328)"><path
             d="m 0,0 c -0.857,0 -1.71,0.058 -2.568,0.058 -1.883,0 -5.591,-0.115 -8.955,-2.396 -5.992,-4.108 -6.106,-11.467 -6.106,-11.753 0,-2.738 1.483,-7.132 6.675,-7.132 1.542,0 4.088,0.364 6.846,2.797 z M 4.222,-7.244 C 2.225,-16.031 1.826,-18.198 0.685,-24.986 l -0.401,-0.401 -5.36,-0.114 -0.285,0.4 0.4,2.281 c -0.972,-0.798 -3.482,-2.909 -8.332,-2.909 -5.818,0 -10.554,4.108 -10.554,11.239 0,4.508 2.169,9.413 4.563,12.264 5.306,6.22 12.667,6.562 17.914,6.562 L 6.503,4.279 6.789,3.822 Z"
             style="fill:#4dbd38;fill-opacity:1;fill-rule:nonzero;stroke:none"
             id="path26" /></g><g
           id="g28"
           transform="translate(181.0127,21.0889)"><path
             d="m 0,0 -0.457,-0.343 -5.818,-0.171 -0.228,0.398 c 0.836,3.844 4.349,16.709 4.393,20.711 0.037,3.423 -2.112,4.563 -4.793,4.563 -3.536,0 -5.876,-1.768 -7.588,-3.024 C -16.603,12.55 -17.287,9.526 -19.111,0 l -0.401,-0.343 -5.818,-0.171 -0.284,0.398 c 0,0 1.729,6.986 3.294,14.246 1.223,5.683 2.23,10.367 2.695,14.28 l 0.399,0.4 c 2.682,0.341 3.308,0.456 6.047,1.026 l 0.284,-0.399 -0.795,-2.909 c 2.222,1.483 5.076,3.479 9.81,3.479 1.883,0 8.045,-0.513 8.045,-7.416 C 4.165,18.464 0.56,4.028 0,0"
             style="fill:#4dbd38;fill-opacity:1;fill-rule:nonzero;stroke:none"
             id="path30" /></g><g
           id="g32"
           transform="translate(202.8076,38.1035)"><path
             d="m 0,0 8.846,-16.83 -0.344,-0.456 -6.332,-0.172 -0.457,0.343 c -1.478,4.011 -7.93,16.601 -7.93,16.601 C -7.87,-7.759 -8.211,-9.471 -9.64,-17 l -0.398,-0.343 -5.762,-0.115 -0.229,0.343 c 0,0 3.043,12.65 5.678,24.361 1.231,5.474 3.148,14.143 3.905,19.397 l 0.4,0.341 6.217,1.027 0.344,-0.4 C -0.633,23.67 -6.046,0.285 -6.046,0.285 -1.955,3.868 4.85,11.01 5.762,11.98 l 0.629,0.342 h 6.561 l 0.17,-0.512 C 11.505,10.529 8.502,7.815 7.417,6.847 Z"
             style="fill:#4dbd38;fill-opacity:1;fill-rule:nonzero;stroke:none"
             id="path34" /></g><g
           id="g36"
           transform="translate(22.23,44.6406)"><path
             d="m 0,0 c -2.451,0.058 -4.674,0.115 -6.84,-1.139 -4.503,-2.566 -5.415,-8.892 -5.415,-11.115 0,-3.933 1.881,-5.643 4.389,-5.643 1.824,0 3.078,0.969 4.275,1.824 z M 8.664,-2.963 C 5.928,-14.592 5.814,-15.275 4.332,-23.483 l -0.399,-0.342 -8.607,-0.228 -0.285,0.342 0.513,2.451 c -2.166,-1.596 -4.389,-3.306 -8.265,-3.306 -4.446,0 -9.519,2.679 -9.519,11.058 0,5.072 1.824,10.031 4.446,13.338 4.56,5.814 10.659,6.555 15.732,6.555 1.197,0 2.394,-0.057 3.591,-0.114 l 1.368,6.156 c 0.741,3.362 0.912,4.274 1.311,6.954 l 0.399,0.398 9.576,1.654 0.342,-0.4 -2.508,-9.86 z"
             style="fill:#00643c;fill-opacity:1;fill-rule:nonzero;stroke:none"
             id="path38" /></g><g
           id="g40"
           transform="translate(31.4629,23.3232)"><path
             d="M 0,0 1.767,6.099 2.28,6.271 c 1.083,-1.198 3.534,-3.706 7.923,-3.706 4.389,0 4.902,2.508 4.902,3.306 0,1.939 -1.881,2.851 -3.876,3.762 L 9.975,10.26 c -3.021,1.539 -5.928,3.305 -5.928,7.809 0,1.425 0.513,10.26 13.053,10.26 3.192,0 6.327,-0.627 9.69,-2.28 l 0.228,-0.513 c -0.912,-2.965 -1.083,-3.476 -1.71,-6.099 l -0.57,-0.114 c -0.513,0.571 -1.026,1.198 -1.71,1.653 -1.425,1.084 -3.534,1.653 -5.13,1.653 -3.078,0 -4.389,-1.539 -4.389,-2.907 0,-1.709 1.995,-2.679 3.477,-3.364 l 1.311,-0.627 c 2.451,-1.253 6.555,-3.248 6.555,-8.321 0,-2.736 -1.425,-10.773 -13.965,-10.773 -5.814,0 -8.892,1.766 -10.716,2.85 z"
             style="fill:#00643c;fill-opacity:1;fill-rule:nonzero;stroke:none"
             id="path42" /></g><g
           id="g44"
           transform="translate(80.3115,38.542)"><path
             d="m 0,0 c 3.192,-8.493 3.705,-9.747 6.555,-17.214 l -0.399,-0.57 -9.519,-0.228 -0.456,0.342 c -0.969,3.249 -3.876,12.711 -5.301,16.416 -1.653,-7.296 -2.109,-9.348 -3.363,-16.188 l -0.399,-0.342 -9.234,-0.228 -0.285,0.4 3.477,14.021 1.539,6.897 c 1.71,7.467 3.876,17.727 4.446,22.23 l 0.399,0.4 c 4.275,0.569 5.586,0.797 10.032,1.595 l 0.285,-0.399 -1.938,-7.695 -4.731,-19.836 c 3.477,3.933 6.213,7.182 10.146,12.426 l 0.57,0.286 c 3.99,0 5.016,0 9.348,0.17 l 0.171,-0.57 C 10.659,11.173 7.182,7.695 6.441,6.897 Z"
             style="fill:#00643c;fill-opacity:1;fill-rule:nonzero;stroke:none"
             id="path46" /></g><g
           id="g48"
           transform="translate(41.2568,149.4487)"><path
             d="M 0,0 C 0,36.772 29.788,66.583 66.547,66.627 V 42.55 C 43.083,42.508 24.076,23.476 24.076,0 c 0,-23.502 19.05,-42.55 42.55,-42.55 23.358,0 42.551,18.868 42.551,42.711 l 24.075,-0.017 c 0,-36.942 -29.83,-66.77 -66.626,-66.77 C 29.828,-66.626 0,-36.798 0,0"
             style="fill:#00643c;fill-opacity:1;fill-rule:evenodd;stroke:none"
             id="path50" /></g><g
           id="g52"
           transform="translate(78.4907,149.4478)"><path
             d="M 0,0 C 0,16.323 13.23,29.556 29.556,29.556 45.877,29.556 59.108,16.322 59.108,0 59.108,-16.32 45.877,-29.554 29.557,-29.554 13.23,-29.554 0,-16.321 0,0"
             style="fill:#4dbd38;fill-opacity:1;fill-rule:nonzero;stroke:none"
             id="path54" /></g><g
           id="g56"
           transform="translate(128.541,186.8838)"><path
             d="m 0,0 c 0,9.355 7.583,16.939 16.937,16.938 9.357,0 16.941,-7.584 16.941,-16.938 0,-9.356 -7.584,-16.94 -16.941,-16.94 C 7.583,-16.939 0,-9.356 0,0"
             style="fill:#00643c;fill-opacity:1;fill-rule:nonzero;stroke:none"
             id="path58" /></g><g
           id="g60"
           transform="translate(111.3721,9.7129)"><path
             d="m 0,0 -1.707,-0.023 c -1.416,-0.026 -3.148,-0.063 -4.246,-1.965 -0.317,-0.537 -0.586,-1.307 -0.586,-2.16 0,-1.549 1,-2.342 2.209,-2.342 0.842,0 1.281,0.267 1.781,0.56 l -0.158,-0.634 c -0.172,-0.696 -0.477,-1.963 -2.002,-1.963 -1.135,0 -1.658,0.597 -1.902,0.865 h -0.098 l -0.5,-0.77 0.012,-0.109 c 0.232,-0.219 0.414,-0.391 0.718,-0.537 0.489,-0.244 1.172,-0.377 1.819,-0.377 0.89,0 1.806,0.232 2.404,0.928 0.537,0.621 0.733,1.488 1.026,2.818 l 0.353,1.635 c 0.426,1.939 0.537,2.428 0.926,3.976 z m -1.451,-0.977 -0.903,-3.976 c -0.281,-0.233 -0.462,-0.391 -0.939,-0.512 -0.184,-0.049 -0.367,-0.074 -0.549,-0.074 -0.304,0 -1.367,0.109 -1.367,1.574 0,0.781 0.367,1.598 0.732,2.037 0.768,0.94 1.842,0.951 2.709,0.965 z"
             style="fill:#00643c;fill-opacity:1;fill-rule:evenodd;stroke:none"
             id="path62" /></g><g
           id="g64"
           transform="translate(113.3096,4.5762)"><path
             d="m 0,0 0.256,1.209 c 0.269,1.207 0.451,1.914 0.855,2.33 0.231,0.244 0.512,0.414 0.842,0.414 0.207,0 0.342,-0.072 0.512,-0.17 L 2.588,3.818 3.063,5.016 3.025,5.125 C 2.818,5.211 2.66,5.271 2.465,5.271 2.086,5.271 1.6,5.027 1.195,4.527 1.074,4.381 0.977,4.223 0.879,4.051 L 1.146,5.125 1.086,5.211 C 0.5,5.088 0.367,5.076 -0.23,5.002 L -0.316,4.918 C -0.512,3.648 -0.561,3.332 -0.928,1.758 l -0.267,-1.16 -0.451,-1.782 0.06,-0.072 1.27,0.024 0.097,0.086 z"
             style="fill:#00643c;fill-opacity:1;fill-rule:evenodd;stroke:none"
             id="path66" /></g><g
           id="g68"
           transform="translate(122.1025,6.0645)"><path
             d="m 0,0 c 0.111,0.428 0.184,0.867 0.184,1.293 0,1.574 -0.952,2.465 -2.549,2.465 -2.66,0 -3.453,-2.635 -3.453,-4.123 0,-1.66 0.89,-2.502 2.513,-2.502 2.293,0 3.037,1.818 3.305,2.867 m -1.268,0.379 c -0.22,-1 -0.709,-2.342 -2.013,-2.342 -0.658,0 -1.244,0.426 -1.244,1.402 0,0.452 0.244,3.428 2.16,3.428 0.451,0 1.244,-0.207 1.244,-1.439 0,-0.342 -0.063,-0.696 -0.147,-1.049"
             style="fill:#00643c;fill-opacity:1;fill-rule:evenodd;stroke:none"
             id="path70" /></g><g
           id="g72"
           transform="translate(128.6279,5.3086)"><path
             d="M 0,0 0.293,1.33 1,4.332 0.951,4.416 -0.281,4.355 -0.379,4.27 C -0.537,3.379 -0.586,3.123 -0.891,1.721 l -0.463,-2.075 c -0.318,-0.269 -0.855,-0.707 -1.66,-0.707 -0.293,0 -1.013,0.122 -1.013,1.012 0,0.403 0.209,1.33 0.281,1.635 0.06,0.232 0.574,2.33 0.672,2.746 L -3.135,4.404 -4.355,4.355 -4.441,4.27 C -4.562,3.611 -4.588,3.453 -4.783,2.623 L -5.064,1.428 C -5.26,0.537 -5.369,0.074 -5.369,-0.414 c 0,-1.295 1.014,-1.672 1.795,-1.672 0.646,0 1.474,0.293 2.012,0.768 l -0.147,-0.598 0.063,-0.086 1.195,0.051 0.084,0.072 z"
             style="fill:#00643c;fill-opacity:1;fill-rule:evenodd;stroke:none"
             id="path74" /></g><g
           id="g76"
           transform="translate(132.7002,9.7012)"><path
             d="M 0,0 -0.061,0.086 -1.367,-0.123 -1.453,-0.195 C -1.551,-0.805 -1.611,-1.232 -1.83,-2.314 -2.051,-3.361 -2.295,-4.42 -2.525,-5.467 l -0.245,-0.963 -0.671,-2.781 0.06,-0.074 1.281,0.012 0.086,0.062 c 0.268,1.481 0.33,1.75 0.586,2.867 0.233,-0.013 0.477,-0.013 0.707,-0.013 0.647,0 2.502,0 3.723,1.572 0.5,0.644 0.816,1.558 0.816,2.445 0,1.547 -1.025,2.438 -2.195,2.438 -0.769,0 -1.281,-0.305 -1.746,-0.598 z m -0.33,-1.523 c 0.184,0.169 0.658,0.607 1.428,0.607 0.672,0 1.39,-0.412 1.39,-1.568 0,-1.424 -1.123,-2.971 -3.209,-2.971 -0.181,0 -0.328,0.025 -0.5,0.037 z"
             style="fill:#00643c;fill-opacity:1;fill-rule:evenodd;stroke:none"
             id="path78" /></g><g
           id="g80"
           transform="translate(88.5635,6.0156)"><path
             d="m 0,0 c 0.102,0.42 0.166,0.855 0.166,1.277 0,0.766 -0.154,1.481 -0.805,2.069 -0.599,0.535 -1.418,0.715 -2.222,0.715 -3.321,0 -3.946,-3.079 -3.946,-4.252 0,-0.959 0.268,-1.661 0.83,-2.147 0.614,-0.537 1.506,-0.664 2.17,-0.664 0.971,0 1.801,0.205 2.53,0.805 C -0.6,-1.648 -0.205,-0.844 0,0 m -2.096,0.484 c -0.242,-1.136 -0.523,-1.468 -0.664,-1.646 -0.217,-0.27 -0.549,-0.498 -0.931,-0.498 -0.422,0 -0.766,0.203 -0.907,0.611 -0.039,0.09 -0.076,0.256 -0.076,0.563 0,0.588 0.268,2.043 0.752,2.67 0.141,0.166 0.447,0.523 1.049,0.523 0.752,0 0.906,-0.664 0.906,-1.137 0,-0.396 -0.064,-0.765 -0.129,-1.086"
             style="fill:#00643c;fill-opacity:1;fill-rule:evenodd;stroke:none"
             id="path82" /></g><g
           id="g84"
           transform="translate(93.0107,4.7812)"><path
             d="m 0,0 -0.076,0.064 c -0.231,-0.078 -0.408,-0.154 -0.74,-0.154 -0.268,0 -0.602,0.115 -0.602,0.524 0,0.216 0.168,0.933 0.244,1.212 L -0.639,3.883 0.537,3.857 0.639,3.945 C 0.805,4.547 0.855,4.687 1.035,5.223 L 0.984,5.312 -0.318,5.287 -0.037,6.449 0.244,7.51 0.166,7.586 C -0.715,7.33 -0.971,7.268 -1.928,7.049 L -2.018,6.961 -2.387,5.312 H -3.23 L -3.32,5.248 -3.689,3.959 -3.613,3.857 -2.719,3.883 -3.141,2.133 C -3.32,1.418 -3.563,0.459 -3.563,-0.076 c 0,-1.151 0.831,-1.494 1.928,-1.494 0.436,0 0.742,0.062 1.151,0.14 l 0.101,0.102 z"
             style="fill:#00643c;fill-opacity:1;fill-rule:evenodd;stroke:none"
             id="path86" /></g><g
           id="g88"
           transform="translate(97.2139,10.0117)"><path
             d="M 0,0 -0.076,0.09 -2.26,-0.268 -2.35,-0.357 c -0.076,-0.651 -0.129,-1.022 -0.371,-2.17 -0.23,-1.137 -0.484,-2.274 -0.74,-3.424 l -0.23,-0.971 -0.741,-3 0.065,-0.09 c 0.472,0.012 0.855,0.037 1.289,0.037 0.293,0 0.574,-0.011 0.869,-0.011 l 0.088,0.064 0.613,3.051 c 1.354,0 2.951,-0.012 4.215,1.533 0.664,0.805 0.984,1.891 0.984,2.811 0,1.621 -0.855,2.578 -2.132,2.578 -0.83,0 -1.381,-0.383 -1.713,-0.612 z m -0.371,-1.826 c 0.269,0.18 0.549,0.371 0.92,0.371 0.256,0 0.945,-0.129 0.945,-1.201 0,-0.971 -0.459,-1.864 -0.971,-2.299 -0.447,-0.369 -1.046,-0.524 -1.404,-0.524 -0.103,0 -0.205,0.014 -0.306,0.026 z"
             style="fill:#00643c;fill-opacity:1;fill-rule:evenodd;stroke:none"
             id="path90" /></g></g></g></g></svg>
